<?xml version="1.0" encoding="UTF-8" standalone="no"?>
<!-- Created with Inkscape (http://www.inkscape.org/) -->

<svg
   width="120.25364mm"
   height="60.002213mm"
   viewBox="0 0 120.25364 60.002213"
   version="1.1"
   id="svg1409"
   inkscape:version="1.1 (c4e8f9e, 2021-05-24)"
   sodipodi:docname="Fill the gaps (inkscape).svg"
   xmlns:inkscape="http://www.inkscape.org/namespaces/inkscape"
   xmlns:sodipodi="http://sodipodi.sourceforge.net/DTD/sodipodi-0.dtd"
   xmlns="http://www.w3.org/2000/svg"
   xmlns:svg="http://www.w3.org/2000/svg">
  <sodipodi:namedview
     id="namedview1411"
     pagecolor="#ffffff"
     bordercolor="#666666"
     borderopacity="1.0"
     inkscape:pageshadow="2"
     inkscape:pageopacity="0.0"
     inkscape:pagecheckerboard="0"
     inkscape:document-units="mm"
     showgrid="false"
     inkscape:lockguides="false"
     inkscape:object-nodes="true"
     inkscape:zoom="1.4142136"
     inkscape:cx="280.36784"
     inkscape:cy="158.03837"
     inkscape:window-width="1920"
     inkscape:window-height="969"
     inkscape:window-x="1280"
     inkscape:window-y="25"
     inkscape:window-maximized="1"
     inkscape:current-layer="layer1" />
  <defs
     id="defs1406">
    <clipPath
       clipPathUnits="userSpaceOnUse"
       id="clipPath14643">
      <g
         inkscape:label="Clip"
         id="use14645">
        <g
           id="g14705"
           transform="translate(22.092708,1.3229167)">
          <g
             id="g14703"
             transform="translate(88.992647,0.59640503)">
            <rect
               style="fill:#aa0000;stroke-width:0.673267"
               id="rect14695"
               width="13.518071"
               height="17.934868"
               x="50.09639"
               y="164.65849" />
            <rect
               style="fill:#ff0000;stroke-width:0.673267"
               id="rect14697"
               width="4.2829537"
               height="1.338423"
               x="50.09639"
               y="164.65849" />
            <rect
               style="fill:#ff0000;stroke-width:0.673267"
               id="rect14699"
               width="4.2829537"
               height="1.338423"
               x="59.331505"
               y="164.65849" />
            <rect
               style="fill:#800000;stroke-width:0.672235"
               id="rect14701"
               width="13.518071"
               height="11.64428"
               x="50.09639"
               y="170.94908" />
          </g>
        </g>
      </g>
    </clipPath>
  </defs>
  <g
     inkscape:label="Layer 1"
     inkscape:groupmode="layer"
     id="layer1"
     transform="translate(-33.607923,-118.87952)">
    <rect
       style="fill:#666666;stroke-width:0.705183"
       id="rect1540"
       width="120"
       height="60"
       x="33.795181"
       y="118.87952"
       ry="9.8130779" />
    <text
       xml:space="preserve"
       style="font-style:normal;font-weight:normal;font-size:10.5833px;line-height:1.25;font-family:sans-serif;fill:#000000;fill-opacity:1;stroke:none;stroke-width:0.264583"
       x="57.636425"
       y="196.01205"
       id="text1910"><tspan
         sodipodi:role="line"
         id="tspan1908"
         style="font-style:normal;font-variant:normal;font-weight:normal;font-stretch:normal;font-family:'Rounded Mplus 1c Bold';-inkscape-font-specification:'Rounded Mplus 1c Bold, ';stroke-width:0.264583"
         x="57.636425"
         y="196.01205">¡Fill the gaps!</tspan></text>
    <path
       id="path16323"
       style="fill:#f2f2f2;stroke-width:0.437536"
       d="m 137.58372,178.87952 h 0.88832 v -14.03015 c 0,-0.26758 -0.19774,-0.48318 -0.4439,-0.48318 -0.24616,0 -0.44442,0.2156 -0.44442,0.48318 z" />
    <path
       id="path15238"
       style="fill:#f2f2f2;stroke-width:0.766083"
       d="m 139.86122,178.81568 h 4.18683 c 0.0849,0 0.16983,-9.8e-4 0.25425,-0.003 0.0844,-0.002 0.16832,-0.006 0.25218,-0.01 0.0839,-0.004 0.16786,-0.009 0.25115,-0.0155 0.0833,-0.006 0.16589,-0.0139 0.24856,-0.0222 0.0827,-0.008 0.16497,-0.0175 0.24701,-0.0279 0.082,-0.0104 0.16408,-0.0217 0.24546,-0.0341 0.0814,-0.0124 0.16218,-0.026 0.24288,-0.0403 0.0807,-0.0143 0.16134,-0.0292 0.24133,-0.0455 0.08,-0.0163 0.15948,-0.034 0.23875,-0.0522 0.0793,-0.0182 0.15817,-0.0373 0.23668,-0.0574 0.0785,-0.0201 0.15637,-0.0411 0.23409,-0.0631 0.0777,-0.022 0.15511,-0.0449 0.23203,-0.0687 0.0769,-0.0238 0.15336,-0.0488 0.22944,-0.0744 0.0761,-0.0257 0.15216,-0.0522 0.22738,-0.0796 0.0752,-0.0274 0.14994,-0.0555 0.22427,-0.0848 0.0743,-0.0292 0.14827,-0.0595 0.22169,-0.0904 0.0734,-0.0309 0.1461,-0.0624 0.2186,-0.0951 0.0725,-0.0327 0.14447,-0.0664 0.216,-0.10077 0.0715,-0.0344 0.14288,-0.0694 0.21343,-0.10542 0.0705,-0.036 0.14027,-0.0729 0.2098,-0.11059 0.0695,-0.0377 0.13873,-0.0765 0.20723,-0.11575 0.0685,-0.0393 0.13668,-0.0795 0.20412,-0.12041 0.0674,-0.0409 0.13415,-0.0826 0.2005,-0.12506 0.0663,-0.0425 0.13217,-0.0857 0.19741,-0.1297 0.0652,-0.044 0.12968,-0.0883 0.19378,-0.13385 0.0641,-0.0455 0.12775,-0.092 0.19069,-0.13901 0.0629,-0.047 0.12532,-0.0947 0.18707,-0.14314 0.0618,-0.0485 0.12291,-0.0979 0.18345,-0.14779 0.0605,-0.0499 0.12054,-0.1006 0.17983,-0.15193 0.0593,-0.0513 0.11767,-0.10334 0.1757,-0.15607 0.058,-0.0527 0.11586,-0.1061 0.1726,-0.16019 0.0567,-0.0541 0.11252,-0.10891 0.16795,-0.16434 0.0554,-0.0554 0.11024,-0.1112 0.16433,-0.16794 0.0541,-0.0567 0.10748,-0.11405 0.1602,-0.17208 0.0527,-0.058 0.10473,-0.11692 0.15606,-0.17622 0.0513,-0.0593 0.10201,-0.1193 0.15193,-0.17983 0.0499,-0.0605 0.0993,-0.12171 0.14779,-0.18346 0.0485,-0.0617 0.0961,-0.12413 0.14315,-0.18707 0.047,-0.0629 0.093,-0.12658 0.13849,-0.19068 0.0455,-0.0641 0.0904,-0.12855 0.13436,-0.19379 0.044,-0.0652 0.0873,-0.13105 0.12971,-0.1974 0.0425,-0.0663 0.0842,-0.13307 0.12505,-0.20051 0.0409,-0.0674 0.0811,-0.13562 0.12041,-0.20412 0.0393,-0.0685 0.0776,-0.13769 0.11524,-0.20722 0.0377,-0.0695 0.0745,-0.13926 0.11059,-0.20981 0.036,-0.0705 0.0716,-0.14189 0.10593,-0.21342 0.0344,-0.0715 0.0676,-0.14352 0.10026,-0.21601 0.0327,-0.0725 0.0646,-0.14517 0.0956,-0.21859 0.0309,-0.0734 0.0612,-0.14736 0.0904,-0.22169 0.0292,-0.0743 0.0573,-0.14906 0.0848,-0.22428 0.0274,-0.0752 0.0539,-0.15078 0.0796,-0.22686 0.0256,-0.0761 0.0506,-0.15253 0.0744,-0.22944 0.0238,-0.0769 0.0468,-0.15431 0.0687,-0.23203 0.022,-0.0777 0.043,-0.1561 0.0631,-0.23461 0.0201,-0.0785 0.0392,-0.15742 0.0574,-0.23668 0.0182,-0.0793 0.0354,-0.15875 0.0517,-0.23874 0.0163,-0.08 0.0317,-0.16063 0.046,-0.24133 0.0143,-0.0807 0.0279,-0.1615 0.0403,-0.24288 0.0124,-0.0814 0.0237,-0.16291 0.0341,-0.24495 0.0104,-0.082 0.0196,-0.16485 0.0279,-0.24753 0.008,-0.0827 0.0159,-0.16528 0.0222,-0.24856 0.006,-0.0833 0.0113,-0.16677 0.0155,-0.25063 0.004,-0.0839 0.008,-0.16828 0.01,-0.2527 0.002,-0.0772 0.002,-0.15439 0.003,-0.23203 -0.003,-2.33218 -1.88082,-4.20904 -4.21369,-4.20904 h -5.57175 c -2.33463,0 -4.21422,1.87959 -4.21422,4.21421 z" />
    <path
       id="rect15233"
       style="fill:#d35f5f;stroke-width:0.759714"
       d="m 122.19937,178.88099 c -0.003,-0.0696 -0.005,-0.13958 -0.005,-0.21002 v -9.7113 c 0,-2.29597 1.84838,-4.14435 4.14435,-4.14435 v 0 h 5.71131 c 2.29597,0 4.14434,1.84838 4.14434,4.14435 v 9.7113 c 0,0.0704 -0.002,0.14046 -0.005,0.21002" />
    <path
       id="path15811"
       style="fill:#999999;stroke-width:0.766083"
       d="m 47.859063,178.88173 h -4.186822 c -0.08495,0 -0.169836,-9.8e-4 -0.254249,-0.003 -0.08441,-0.002 -0.168323,-0.006 -0.252182,-0.01 -0.08386,-0.004 -0.167868,-0.009 -0.251148,-0.0155 -0.08328,-0.006 -0.165891,-0.0139 -0.248563,-0.0222 -0.08267,-0.008 -0.164973,-0.0175 -0.247012,-0.0279 -0.08204,-0.0104 -0.164079,-0.0217 -0.245465,-0.0341 -0.08138,-0.0124 -0.162176,-0.026 -0.242877,-0.0403 -0.0807,-0.0143 -0.161335,-0.0292 -0.241329,-0.0455 -0.08,-0.0163 -0.159483,-0.034 -0.238747,-0.0522 -0.07926,-0.0182 -0.158173,-0.0373 -0.236677,-0.0574 -0.0785,-0.0201 -0.156375,-0.0411 -0.234096,-0.0631 -0.07772,-0.022 -0.155112,-0.0449 -0.232026,-0.0687 -0.07691,-0.0238 -0.153363,-0.0488 -0.229444,-0.0744 -0.07608,-0.0256 -0.152157,-0.0521 -0.227375,-0.0796 -0.07522,-0.0274 -0.14994,-0.0555 -0.224277,-0.0847 -0.07433,-0.0292 -0.148264,-0.0595 -0.221692,-0.0904 -0.07342,-0.031 -0.1461,-0.0624 -0.21859,-0.0951 -0.07249,-0.0327 -0.144479,-0.0664 -0.216009,-0.10077 -0.07153,-0.0344 -0.142878,-0.0694 -0.213423,-0.10542 -0.07054,-0.036 -0.140272,-0.0729 -0.209804,-0.11059 -0.06954,-0.0377 -0.138727,-0.0764 -0.207225,-0.11575 -0.0685,-0.0393 -0.136686,-0.0795 -0.20412,-0.12041 -0.06744,-0.0409 -0.134157,-0.0826 -0.200504,-0.12506 -0.06635,-0.0425 -0.132168,-0.0857 -0.197406,-0.1297 -0.06524,-0.044 -0.129688,-0.0883 -0.193786,-0.13384 -0.0641,-0.0455 -0.127749,-0.092 -0.190685,-0.13901 -0.06294,-0.047 -0.12532,-0.0947 -0.187071,-0.14315 -0.06175,-0.0485 -0.122915,-0.0979 -0.183449,-0.14779 -0.06054,-0.0499 -0.120539,-0.1006 -0.179835,-0.15193 -0.0593,-0.0513 -0.117668,-0.10334 -0.175699,-0.15606 -0.05803,-0.0527 -0.115858,-0.10611 -0.172601,-0.1602 -0.05674,-0.0541 -0.112519,-0.1089 -0.167947,-0.16433 -0.05543,-0.0554 -0.110244,-0.11121 -0.164333,-0.16795 -0.05409,-0.0567 -0.107473,-0.11405 -0.160197,-0.17208 -0.05272,-0.058 -0.10473,-0.11692 -0.156062,-0.17622 -0.05133,-0.0593 -0.102012,-0.1193 -0.151929,-0.17983 -0.04992,-0.0605 -0.09932,-0.1217 -0.147793,-0.18345 -0.04848,-0.0617 -0.09613,-0.12414 -0.143145,-0.18707 -0.04701,-0.0629 -0.09297,-0.12659 -0.138494,-0.19069 -0.04552,-0.0641 -0.09036,-0.12855 -0.134358,-0.19379 -0.044,-0.0652 -0.08725,-0.13105 -0.129706,-0.1974 -0.04246,-0.0663 -0.08417,-0.13307 -0.125058,-0.20051 -0.04089,-0.0674 -0.08111,-0.13562 -0.120407,-0.20412 -0.0393,-0.0685 -0.07756,-0.13769 -0.115237,-0.20722 -0.03768,-0.0695 -0.07455,-0.13926 -0.110587,-0.2098 -0.03604,-0.0705 -0.07157,-0.1419 -0.105937,-0.21343 -0.03437,-0.0715 -0.06758,-0.14352 -0.100253,-0.21601 -0.03267,-0.0725 -0.06465,-0.14516 -0.0956,-0.21859 -0.03095,-0.0734 -0.06123,-0.14735 -0.09043,-0.22169 -0.02921,-0.0743 -0.05731,-0.14905 -0.08475,-0.22428 -0.02744,-0.0752 -0.05394,-0.15078 -0.07958,-0.22685 -0.02564,-0.0761 -0.05059,-0.15253 -0.07441,-0.22945 -0.02382,-0.0769 -0.04675,-0.1543 -0.06873,-0.23202 -0.02198,-0.0777 -0.04294,-0.15611 -0.06305,-0.23462 -0.0201,-0.0785 -0.03915,-0.15741 -0.05736,-0.23667 -0.01821,-0.0793 -0.03539,-0.15875 -0.05167,-0.23875 -0.01629,-0.08 -0.03166,-0.16063 -0.04599,-0.24133 -0.01434,-0.0807 -0.02794,-0.16149 -0.04031,-0.24288 -0.01237,-0.0814 -0.02374,-0.1629 -0.0341,-0.24494 -0.01037,-0.082 -0.01956,-0.16486 -0.02791,-0.24753 -0.0083,-0.0827 -0.01593,-0.16529 -0.02222,-0.24857 -0.0063,-0.0833 -0.01128,-0.16677 -0.0155,-0.25063 -0.0042,-0.0839 -0.0077,-0.16828 -0.0098,-0.2527 -0.0019,-0.0772 -0.0024,-0.15439 -0.0026,-0.23202 0.0028,-2.33219 1.880822,-4.20905 4.213696,-4.20905 h 5.571752 c 2.334622,0 4.214212,1.87959 4.214212,4.21421 z" />
    <path
       id="path16408"
       style="fill:#f2f2f2;stroke-width:0.437536"
       d="m 49.248606,178.87952 h 0.888317 v -14.03015 c 0,-0.26758 -0.197739,-0.48318 -0.443899,-0.48318 -0.24616,0 -0.444418,0.2156 -0.444418,0.48318 z" />
    <path
       id="path16410"
       style="fill:#f2f2f2;stroke-width:0.437536"
       d="m 66.915626,178.87952 h 0.888317 v -14.03015 c 0,-0.26758 -0.197739,-0.48318 -0.443899,-0.48318 -0.24616,0 -0.444418,0.2156 -0.444418,0.48318 z" />
    <path
       id="path16412"
       style="fill:#f2f2f2;stroke-width:0.437536"
       d="m 84.582649,178.87952 h 0.888317 v -14.03015 c 0,-0.26758 -0.197739,-0.48318 -0.443899,-0.48318 -0.246161,0 -0.444418,0.2156 -0.444418,0.48318 z" />
    <path
       id="path16414"
       style="fill:#f2f2f2;stroke-width:0.437536"
       d="m 102.24967,178.87952 h 0.88832 v -14.03015 c 0,-0.26758 -0.19774,-0.48318 -0.4439,-0.48318 -0.24616,0 -0.44442,0.2156 -0.44442,0.48318 z" />
    <path
       id="path16416"
       style="fill:#f2f2f2;stroke-width:0.437536"
       d="m 119.9167,178.87952 h 0.88831 v -14.03015 c 0,-0.26758 -0.19773,-0.48318 -0.44389,-0.48318 -0.24616,0 -0.44442,0.2156 -0.44442,0.48318 z" />
    <path
       id="path16921"
       style="fill:#00ff00;stroke-width:0.759714"
       d="m 51.531474,178.88099 c -0.0034,-0.0696 -0.0052,-0.13958 -0.0052,-0.21002 v -9.7113 c 0,-2.29597 1.848377,-4.14435 4.144344,-4.14435 v 0 h 5.711309 c 2.295969,0 4.144346,1.84838 4.144346,4.14435 v 9.7113 c 0,0.0704 -0.0017,0.14046 -0.0052,0.21002" />
    <path
       id="path16923"
       style="fill:#ff00ff;stroke-width:0.759714"
       d="m 69.198495,178.88099 c -0.0034,-0.0696 -0.0052,-0.13958 -0.0052,-0.21002 v -9.7113 c 0,-2.29597 1.848377,-4.14435 4.144344,-4.14435 v 0 h 5.711309 c 2.295969,0 4.144346,1.84838 4.144346,4.14435 v 9.7113 c 0,0.0704 -0.0017,0.14046 -0.0052,0.21002" />
    <path
       id="path16927"
       style="fill:#ffdd55;stroke-width:0.759714"
       d="m 104.53235,178.88099 c -0.003,-0.0696 -0.005,-0.13958 -0.005,-0.21002 v -9.7113 c 0,-2.29597 1.84837,-4.14435 4.14434,-4.14435 v 0 h 5.71131 c 2.29597,0 4.14435,1.84838 4.14435,4.14435 v 9.7113 c 0,0.0704 -0.002,0.14046 -0.005,0.21002" />
    <g
       id="g17517"
       transform="translate(-31.353125,-0.92604167)"
       style="fill:#ffffff">
      <rect
         style="fill:#ffffff;stroke-width:1.13628"
         id="rect12556"
         width="16.427059"
         height="4.9698792"
         x="80.996864"
         y="147.14491"
         ry="2.4849396" />
      <path
         sodipodi:type="star"
         style="fill:#ffffff;stroke-width:3.77953"
         id="path12580"
         inkscape:flatsided="false"
         sodipodi:sides="3"
         sodipodi:cx="-140.50281"
         sodipodi:cy="464.33545"
         sodipodi:r1="35.080971"
         sodipodi:r2="17.540485"
         sodipodi:arg1="0.81569192"
         sodipodi:arg2="1.8628895"
         inkscape:rounded="0"
         inkscape:randomized="0"
         d="m -116.45955,489.88141 -29.09417,-8.74843 -29.09417,-8.74844 22.12345,-20.82207 22.12346,-20.82208 6.97071,29.57051 z"
         transform="matrix(0.05885655,0.18062334,-0.20679698,0.05140727,201.35099,151.05421)"
         inkscape:transform-center-x="-1.6390365"
         inkscape:transform-center-y="0.719015" />
      <g
         id="g17509"
         transform="matrix(0.78868141,0,0,0.78868141,-45.152023,26.063679)"
         style="fill:#ffffff">
        <rect
           style="fill:#ffffff;stroke-width:1.13628"
           id="rect17500"
           width="16.427059"
           height="4.9698792"
           x="226.7401"
           y="39.37767"
           ry="2.4849396"
           transform="rotate(30)" />
        <rect
           style="fill:#ffffff;stroke-width:1.13628"
           id="rect17502"
           width="16.427059"
           height="4.9698792"
           x="70.120979"
           y="227.05235"
           ry="2.4849396"
           transform="rotate(-30)" />
        <rect
           style="fill:#ffffff;stroke-width:1.13628"
           id="rect17504"
           width="16.427059"
           height="4.9698792"
           x="-164.92101"
           y="175.0963"
           ry="2.4849396"
           transform="rotate(-90)" />
      </g>
    </g>
    <path
       id="path17753"
       style="fill:#ff5555;stroke-width:0.759714"
       d="m 143.93582,164.83744 c -1.75843,0.0215 -3.24239,1.12922 -3.82509,2.68459 h 3.82509 z m 5.81515,0 v 2.68459 h 3.82508 c -0.58267,-1.55542 -2.06656,-2.66321 -3.82508,-2.68459 z" />
    <path
       id="path18254"
       style="fill:#ff5555;stroke-width:0.759714"
       d="m 126.33872,164.81532 c -1.75843,0.0215 -3.24239,1.12922 -3.82509,2.68459 h 3.82509 z m 5.81515,0 v 2.68459 h 3.82508 c -0.58267,-1.55542 -2.06656,-2.66321 -3.82508,-2.68459 z" />
    <path
       id="path18364"
       style="fill:#ff5555;stroke-width:0.759714"
       d="m 108.67169,164.81532 c -1.75843,0.0215 -3.24239,1.12922 -3.82509,2.68459 h 3.82509 z m 5.81515,0 v 2.68459 h 3.82508 c -0.58267,-1.55542 -2.06656,-2.66321 -3.82508,-2.68459 z" />
    <path
       id="path18366"
       style="fill:#ff5555;stroke-width:0.759714"
       d="m 73.337639,164.81532 c -1.75843,0.0215 -3.24239,1.12922 -3.82509,2.68459 h 3.82509 z m 5.81515,0 v 2.68459 h 3.82508 c -0.58267,-1.55542 -2.06656,-2.66321 -3.82508,-2.68459 z" />
    <path
       id="path18368"
       style="fill:#ff5555;stroke-width:0.759714"
       d="m 55.670618,164.81532 c -1.75843,0.0215 -3.24239,1.12922 -3.82509,2.68459 h 3.82509 z m 5.81515,0 v 2.68459 h 3.82508 c -0.58267,-1.55542 -2.06656,-2.66321 -3.82508,-2.68459 z" />
    <path
       id="path18370"
       style="fill:#ff5555;stroke-width:0.759714"
       d="m 37.865095,165.00241 c -1.75843,0.0215 -3.24239,1.12922 -3.82509,2.68459 h 3.82509 z m 5.81515,0 v 2.68459 h 3.82508 c -0.58267,-1.55542 -2.06656,-2.66321 -3.82508,-2.68459 z" />
    <rect
       style="fill:#000000;fill-opacity:0.278226;stroke-width:0.777132"
       id="rect18412"
       width="14"
       height="7"
       x="69.198494"
       y="171.8764"
       ry="0" />
    <rect
       style="fill:#000000;fill-opacity:0.278226;stroke-width:0.777132"
       id="rect18908"
       width="14"
       height="7"
       x="104.52235"
       y="171.881"
       ry="0" />
    <rect
       style="fill:#000000;fill-opacity:0.278226;stroke-width:0.777132"
       id="rect18910"
       width="14"
       height="7"
       x="122.18937"
       y="171.881"
       ry="0" />
    <rect
       style="fill:#000000;fill-opacity:0.278226;stroke-width:0.777132"
       id="rect18948"
       width="14"
       height="7"
       x="51.531475"
       y="171.881"
       ry="0" />
    <path
       id="path19112"
       style="fill:#f2f2f2;stroke-width:0.437536"
       d="m 49.885763,118.88413 h -0.88832 v 14.03015 c 0,0.26758 0.19774,0.48318 0.4439,0.48318 0.24616,0 0.44442,-0.2156 0.44442,-0.48318 z" />
    <path
       id="path19114"
       style="fill:#f2f2f2;stroke-width:0.766083"
       d="m 47.608263,118.94797 h -4.18683 c -0.0849,0 -0.16983,9.8e-4 -0.25425,0.003 -0.0844,0.002 -0.16832,0.006 -0.25218,0.01 -0.0839,0.004 -0.16786,0.009 -0.25115,0.0155 -0.0833,0.006 -0.16589,0.0139 -0.24856,0.0222 -0.0827,0.008 -0.16497,0.0175 -0.24701,0.0279 -0.082,0.0104 -0.16408,0.0217 -0.24546,0.0341 -0.0814,0.0124 -0.16218,0.026 -0.24288,0.0403 -0.0807,0.0143 -0.16134,0.0292 -0.24133,0.0455 -0.08,0.0163 -0.15948,0.034 -0.23875,0.0522 -0.0793,0.0182 -0.15817,0.0373 -0.23668,0.0574 -0.0785,0.0201 -0.15637,0.0411 -0.23409,0.0631 -0.0777,0.022 -0.15511,0.0449 -0.23203,0.0687 -0.0769,0.0238 -0.15336,0.0488 -0.22944,0.0744 -0.0761,0.0257 -0.15216,0.0522 -0.22738,0.0796 -0.0752,0.0274 -0.14994,0.0555 -0.22427,0.0848 -0.0743,0.0292 -0.14827,0.0595 -0.22169,0.0904 -0.0734,0.0309 -0.1461,0.0624 -0.2186,0.0951 -0.0725,0.0327 -0.14447,0.0664 -0.216,0.10077 -0.0715,0.0344 -0.14288,0.0694 -0.21343,0.10542 -0.0705,0.036 -0.14027,0.0729 -0.2098,0.11059 -0.0695,0.0377 -0.13873,0.0765 -0.20723,0.11575 -0.0685,0.0393 -0.13668,0.0795 -0.20412,0.12041 -0.0674,0.0409 -0.13415,0.0826 -0.2005,0.12506 -0.0663,0.0425 -0.13217,0.0857 -0.19741,0.1297 -0.0652,0.044 -0.12968,0.0883 -0.19378,0.13385 -0.0641,0.0455 -0.12775,0.092 -0.19069,0.13901 -0.0629,0.047 -0.12532,0.0947 -0.18707,0.14314 -0.0618,0.0485 -0.12291,0.0979 -0.18345,0.14779 -0.0605,0.0499 -0.12054,0.1006 -0.17983,0.15193 -0.0593,0.0513 -0.11767,0.10334 -0.1757,0.15607 -0.058,0.0527 -0.11586,0.1061 -0.1726,0.16019 -0.0567,0.0541 -0.11252,0.10891 -0.16795,0.16434 -0.0554,0.0554 -0.11024,0.1112 -0.16433,0.16794 -0.0541,0.0567 -0.10748,0.11405 -0.1602,0.17208 -0.0527,0.058 -0.10473,0.11692 -0.15606,0.17622 -0.0513,0.0593 -0.10201,0.1193 -0.15193,0.17983 -0.0499,0.0605 -0.0993,0.12171 -0.14779,0.18346 -0.0485,0.0617 -0.0961,0.12413 -0.14315,0.18707 -0.047,0.0629 -0.093,0.12658 -0.13849,0.19068 -0.0455,0.0641 -0.0904,0.12855 -0.13436,0.19379 -0.044,0.0652 -0.0873,0.13105 -0.12971,0.1974 -0.0425,0.0663 -0.0842,0.13307 -0.12505,0.20051 -0.0409,0.0674 -0.0811,0.13562 -0.12041,0.20412 -0.0393,0.0685 -0.0776,0.13769 -0.11524,0.20722 -0.0377,0.0695 -0.0745,0.13926 -0.11059,0.20981 -0.036,0.0705 -0.0716,0.14189 -0.10593,0.21342 -0.0344,0.0715 -0.0676,0.14352 -0.10026,0.21601 -0.0327,0.0725 -0.0646,0.14517 -0.0956,0.21859 -0.0309,0.0734 -0.0612,0.14736 -0.0904,0.22169 -0.0292,0.0743 -0.0573,0.14906 -0.0848,0.22428 -0.0274,0.0752 -0.0539,0.15078 -0.0796,0.22686 -0.0256,0.0761 -0.0506,0.15253 -0.0744,0.22944 -0.0238,0.0769 -0.0468,0.15431 -0.0687,0.23203 -0.022,0.0777 -0.043,0.1561 -0.0631,0.23461 -0.0201,0.0785 -0.0392,0.15742 -0.0574,0.23668 -0.0182,0.0793 -0.0354,0.15875 -0.0517,0.23874 -0.0163,0.08 -0.0317,0.16063 -0.046,0.24133 -0.0143,0.0807 -0.0279,0.1615 -0.0403,0.24288 -0.0124,0.0814 -0.0237,0.16291 -0.0341,0.24495 -0.0104,0.082 -0.0196,0.16485 -0.0279,0.24753 -0.008,0.0827 -0.0159,0.16528 -0.0222,0.24856 -0.006,0.0833 -0.0113,0.16677 -0.0155,0.25063 -0.004,0.0839 -0.008,0.16828 -0.01,0.2527 -0.002,0.0772 -0.002,0.15439 -0.003,0.23203 0.003,2.33218 1.88082,4.20904 4.21369,4.20904 h 5.57175 c 2.33463,0 4.21422,-1.87959 4.21422,-4.21421 z" />
    <path
       id="path19116"
       style="fill:#d35f5f;stroke-width:0.759714"
       d="m 65.270113,118.88266 c 0.003,0.0696 0.005,0.13958 0.005,0.21002 v 9.7113 c 0,2.29597 -1.84838,4.14435 -4.14435,4.14435 v 0 h -5.71131 c -2.29597,0 -4.14434,-1.84838 -4.14434,-4.14435 v -9.7113 c 0,-0.0704 0.002,-0.14046 0.005,-0.21002" />
    <path
       id="path19118"
       style="fill:#999999;stroke-width:0.766083"
       d="m 139.61042,118.88192 h 4.18682 c 0.0849,0 0.16984,9.8e-4 0.25425,0.003 0.0844,0.002 0.16832,0.006 0.25218,0.01 0.0839,0.004 0.16787,0.009 0.25115,0.0155 0.0833,0.006 0.16589,0.0139 0.24856,0.0222 0.0827,0.008 0.16498,0.0175 0.24701,0.0279 0.082,0.0104 0.16408,0.0217 0.24547,0.0341 0.0814,0.0124 0.16218,0.026 0.24288,0.0403 0.0807,0.0143 0.16133,0.0292 0.24133,0.0455 0.08,0.0163 0.15948,0.034 0.23874,0.0522 0.0793,0.0182 0.15818,0.0373 0.23668,0.0574 0.0785,0.0201 0.15637,0.0411 0.2341,0.0631 0.0777,0.022 0.15511,0.0449 0.23202,0.0687 0.0769,0.0238 0.15336,0.0488 0.22945,0.0744 0.0761,0.0256 0.15215,0.0521 0.22737,0.0796 0.0752,0.0274 0.14994,0.0555 0.22428,0.0847 0.0743,0.0292 0.14826,0.0595 0.22169,0.0904 0.0734,0.031 0.1461,0.0624 0.21859,0.0951 0.0725,0.0327 0.14448,0.0664 0.21601,0.10077 0.0715,0.0344 0.14288,0.0694 0.21342,0.10542 0.0705,0.036 0.14027,0.0729 0.20981,0.11059 0.0695,0.0377 0.13872,0.0764 0.20722,0.11575 0.0685,0.0393 0.13669,0.0795 0.20412,0.12041 0.0674,0.0409 0.13416,0.0826 0.2005,0.12506 0.0663,0.0425 0.13217,0.0857 0.19741,0.1297 0.0652,0.044 0.12969,0.0883 0.19379,0.13384 0.0641,0.0455 0.12775,0.092 0.19068,0.13901 0.0629,0.047 0.12532,0.0947 0.18707,0.14315 0.0618,0.0485 0.12292,0.0979 0.18345,0.14779 0.0605,0.0499 0.12054,0.1006 0.17984,0.15193 0.0593,0.0513 0.11766,0.10334 0.1757,0.15606 0.058,0.0527 0.11585,0.10611 0.1726,0.1602 0.0567,0.0541 0.11252,0.1089 0.16794,0.16433 0.0554,0.0554 0.11025,0.11121 0.16434,0.16795 0.0541,0.0567 0.10747,0.11405 0.16019,0.17208 0.0527,0.058 0.10473,0.11692 0.15607,0.17622 0.0513,0.0593 0.10201,0.1193 0.15192,0.17983 0.0499,0.0605 0.0993,0.1217 0.1478,0.18345 0.0485,0.0617 0.0961,0.12414 0.14314,0.18707 0.047,0.0629 0.093,0.12659 0.1385,0.19069 0.0455,0.0641 0.0904,0.12855 0.13435,0.19379 0.044,0.0652 0.0873,0.13105 0.12971,0.1974 0.0425,0.0663 0.0842,0.13307 0.12506,0.20051 0.0409,0.0674 0.0811,0.13562 0.12041,0.20412 0.0393,0.0685 0.0776,0.13769 0.11523,0.20722 0.0377,0.0695 0.0746,0.13926 0.11059,0.2098 0.036,0.0705 0.0716,0.1419 0.10594,0.21343 0.0344,0.0715 0.0676,0.14352 0.10025,0.21601 0.0327,0.0725 0.0647,0.14516 0.0956,0.21859 0.0309,0.0734 0.0612,0.14735 0.0904,0.22169 0.0292,0.0743 0.0573,0.14905 0.0848,0.22428 0.0274,0.0752 0.0539,0.15078 0.0796,0.22685 0.0256,0.0761 0.0506,0.15253 0.0744,0.22945 0.0238,0.0769 0.0468,0.1543 0.0687,0.23202 0.022,0.0777 0.0429,0.15611 0.0631,0.23462 0.0201,0.0785 0.0392,0.15741 0.0574,0.23667 0.0182,0.0793 0.0354,0.15875 0.0517,0.23875 0.0163,0.08 0.0317,0.16063 0.046,0.24133 0.0143,0.0807 0.0279,0.16149 0.0403,0.24288 0.0124,0.0814 0.0237,0.1629 0.0341,0.24494 0.0104,0.082 0.0196,0.16486 0.0279,0.24753 0.008,0.0827 0.0159,0.16529 0.0222,0.24857 0.006,0.0833 0.0113,0.16677 0.0155,0.25063 0.004,0.0839 0.008,0.16828 0.01,0.2527 0.002,0.0772 0.002,0.15439 0.003,0.23202 -0.003,2.33219 -1.88082,4.20905 -4.2137,4.20905 h -5.57175 c -2.33462,0 -4.21421,-1.87959 -4.21421,-4.21421 z" />
    <path
       id="path19120"
       style="fill:#f2f2f2;stroke-width:0.437536"
       d="m 138.22088,118.88413 h -0.88832 v 14.03015 c 0,0.26758 0.19774,0.48318 0.4439,0.48318 0.24616,0 0.44442,-0.2156 0.44442,-0.48318 z" />
    <path
       id="path19122"
       style="fill:#f2f2f2;stroke-width:0.437536"
       d="m 120.55386,118.88413 h -0.88832 v 14.03015 c 0,0.26758 0.19774,0.48318 0.4439,0.48318 0.24616,0 0.44442,-0.2156 0.44442,-0.48318 z" />
    <path
       id="path19124"
       style="fill:#f2f2f2;stroke-width:0.437536"
       d="m 102.88683,118.88413 h -0.88831 v 14.03015 c 0,0.26758 0.19773,0.48318 0.44389,0.48318 0.24617,0 0.44442,-0.2156 0.44442,-0.48318 z" />
    <path
       id="path19126"
       style="fill:#f2f2f2;stroke-width:0.437536"
       d="m 85.219813,118.88413 h -0.88832 v 14.03015 c 0,0.26758 0.19774,0.48318 0.4439,0.48318 0.24616,0 0.44442,-0.2156 0.44442,-0.48318 z" />
    <path
       id="path19128"
       style="fill:#f2f2f2;stroke-width:0.437536"
       d="m 67.552783,118.88413 h -0.88831 v 14.03015 c 0,0.26758 0.19773,0.48318 0.44389,0.48318 0.24616,0 0.44442,-0.2156 0.44442,-0.48318 z" />
    <path
       id="path19130"
       style="fill:#00ff00;stroke-width:0.759714"
       d="m 135.93801,118.88266 c 0.003,0.0696 0.005,0.13958 0.005,0.21002 v 9.7113 c 0,2.29597 -1.84838,4.14435 -4.14435,4.14435 v 0 h -5.71131 c -2.29596,0 -4.14434,-1.84838 -4.14434,-4.14435 v -9.7113 c 0,-0.0704 0.002,-0.14046 0.005,-0.21002" />
    <path
       id="path19132"
       style="fill:#ff00ff;stroke-width:0.759714"
       d="m 118.27099,118.88266 c 0.003,0.0696 0.005,0.13958 0.005,0.21002 v 9.7113 c 0,2.29597 -1.84838,4.14435 -4.14435,4.14435 v 0 h -5.71131 c -2.29597,0 -4.14434,-1.84838 -4.14434,-4.14435 v -9.7113 c 0,-0.0704 0.002,-0.14046 0.005,-0.21002" />
    <path
       id="path19134"
       style="fill:#ffdd55;stroke-width:0.759714"
       d="m 82.937133,118.88266 c 0.003,0.0696 0.005,0.13958 0.005,0.21002 v 9.7113 c 0,2.29597 -1.84837,4.14435 -4.14434,4.14435 v 0 h -5.71131 c -2.29597,0 -4.14435,-1.84838 -4.14435,-4.14435 v -9.7113 c 0,-0.0704 0.002,-0.14046 0.005,-0.21002" />
    <path
       id="path19136"
       style="fill:#ff5555;stroke-width:0.759714"
       d="m 43.533663,132.92621 c 1.75843,-0.0215 3.24239,-1.12922 3.82509,-2.68459 h -3.82509 z m -5.81515,0 v -2.68459 h -3.82508 c 0.58267,1.55542 2.06656,2.66321 3.82508,2.68459 z" />
    <path
       id="path19138"
       style="fill:#ff5555;stroke-width:0.759714"
       d="m 61.130763,132.94833 c 1.75843,-0.0215 3.24239,-1.12922 3.82509,-2.68459 h -3.82509 z m -5.81515,0 v -2.68459 h -3.82508 c 0.58267,1.55542 2.06656,2.66321 3.82508,2.68459 z" />
    <path
       id="path19140"
       style="fill:#ff5555;stroke-width:0.759714"
       d="m 78.797793,132.94833 c 1.75843,-0.0215 3.24239,-1.12922 3.82509,-2.68459 h -3.82509 z m -5.81515,0 v -2.68459 h -3.82508 c 0.58267,1.55542 2.06656,2.66321 3.82508,2.68459 z" />
    <path
       id="path19142"
       style="fill:#ff5555;stroke-width:0.759714"
       d="m 114.13184,132.94833 c 1.75843,-0.0215 3.24239,-1.12922 3.82509,-2.68459 h -3.82509 z m -5.81515,0 v -2.68459 h -3.82508 c 0.58267,1.55542 2.06656,2.66321 3.82508,2.68459 z" />
    <path
       id="path19144"
       style="fill:#ff5555;stroke-width:0.759714"
       d="m 131.79886,132.94833 c 1.75843,-0.0215 3.24239,-1.12922 3.82509,-2.68459 h -3.82509 z m -5.81515,0 v -2.68459 h -3.82508 c 0.58267,1.55542 2.06656,2.66321 3.82508,2.68459 z" />
    <path
       id="path19146"
       style="fill:#ff5555;stroke-width:0.759714"
       d="m 149.60439,132.76124 c 1.75843,-0.0215 3.24239,-1.12922 3.82509,-2.68459 h -3.82509 z m -5.81515,0 v -2.68459 h -3.82508 c 0.58267,1.55542 2.06656,2.66321 3.82508,2.68459 z" />
    <rect
       style="fill:#000000;fill-opacity:0.278226;stroke-width:0.777132"
       id="rect19148"
       width="14"
       height="7"
       x="-118.27099"
       y="-125.88724"
       ry="0"
       transform="scale(-1)" />
    <rect
       style="fill:#000000;fill-opacity:0.278226;stroke-width:0.777132"
       id="rect19150"
       width="14"
       height="7"
       x="-82.947136"
       y="-125.88265"
       ry="0"
       transform="scale(-1)" />
    <rect
       style="fill:#000000;fill-opacity:0.278226;stroke-width:0.777132"
       id="rect19152"
       width="14"
       height="7"
       x="-65.280113"
       y="-125.88265"
       ry="0"
       transform="scale(-1)" />
    <rect
       style="fill:#000000;fill-opacity:0.278226;stroke-width:0.777132"
       id="rect19154"
       width="14"
       height="7"
       x="-135.938"
       y="-125.88265"
       ry="0"
       transform="scale(-1)" />
    <path
       id="path19236"
       style="fill:#d35f5f;stroke-width:0.759714"
       d="m 100.4597,118.88266 c 0.003,0.0696 0.005,0.13958 0.005,0.21002 v 9.7113 c 0,2.29597 -1.848384,4.14435 -4.144354,4.14435 v 0 h -5.71131 c -2.29597,0 -4.14434,-1.84838 -4.14434,-4.14435 v -9.7113 c 0,-0.0704 0.002,-0.14046 0.005,-0.21002" />
    <path
       id="path19238"
       style="fill:#ff5555;stroke-width:0.759714"
       d="m 96.320346,132.94833 c 1.75843,-0.0215 3.24239,-1.12922 3.825094,-2.68459 h -3.825094 z m -5.81515,0 v -2.68459 h -3.82508 c 0.58267,1.55542 2.06656,2.66321 3.82508,2.68459 z" />
    <rect
       style="fill:#000000;fill-opacity:0.278226;stroke-width:0.777132"
       id="rect19240"
       width="14"
       height="7"
       x="-100.4697"
       y="-125.88265"
       ry="0"
       transform="scale(-1)" />
    <path
       id="path19270"
       style="fill:#000000;fill-opacity:0.278226;stroke-width:2.93719"
       d="m 528.35938,676.08008 h 15.82421 c 0.6421,0 1.28017,-0.0169 1.91407,-0.0488 0.63389,-0.0319 1.26375,-0.0795 1.88867,-0.14258 0.62492,-0.0631 1.24614,-0.14089 1.86133,-0.23437 0.61518,-0.0935 1.22539,-0.20111 1.83007,-0.32422 0.60469,-0.12311 1.20346,-0.26209 1.79688,-0.41406 0.59342,-0.15198 1.18033,-0.31798 1.76172,-0.49805 0.58138,-0.18008 1.15797,-0.37462 1.72656,-0.58203 0.56859,-0.20741 1.13052,-0.42813 1.68555,-0.66211 0.55503,-0.23398 1.10187,-0.48045 1.64258,-0.74024 0.5407,-0.25978 1.074,-0.53158 1.5996,-0.8164 0.52561,-0.28482 1.04494,-0.58349 1.55469,-0.89258 0.50975,-0.3091 1.01078,-0.63029 1.50391,-0.96289 0.49313,-0.33261 0.97738,-0.6759 1.45312,-1.03125 0.47575,-0.35535 0.94281,-0.72228 1.40039,-1.09961 0.45759,-0.37733 0.90508,-0.76552 1.34375,-1.16406 0.43867,-0.39854 0.86813,-0.80758 1.28711,-1.22657 0.41899,-0.41898 0.82803,-0.84648 1.22657,-1.28515 0.39854,-0.43867 0.78673,-0.88812 1.16406,-1.3457 0.37732,-0.45759 0.74426,-0.92465 1.09961,-1.4004 0.35535,-0.47574 0.69864,-0.95999 1.03125,-1.45312 0.3326,-0.49313 0.65379,-0.99416 0.96289,-1.50391 0.30909,-0.50975 0.6058,-1.02908 0.89062,-1.55468 0.28483,-0.52561 0.55858,-1.05891 0.81836,-1.59961 0.25979,-0.5407 0.50626,-1.08755 0.74024,-1.64258 0.23398,-0.55503 0.4547,-1.11696 0.66211,-1.68555 0.20741,-0.56859 0.40195,-1.14322 0.58203,-1.72461 0.0431,-0.13907 0.0777,-0.2821 0.11914,-0.42187 h -51.37109 z"
       transform="scale(0.26458333)" />
    <path
       id="path19353"
       style="fill:#000000;fill-opacity:0.278226;stroke-width:0.777131"
       d="m 47.859063,178.88173 h -4.186822 c -0.169889,0 -0.338712,-0.004 -0.506431,-0.0129 -0.167717,-0.008 -0.334367,-0.021 -0.499711,-0.0377 -0.165343,-0.0167 -0.329708,-0.0373 -0.492477,-0.062 -0.162766,-0.0247 -0.324217,-0.0532 -0.484206,-0.0858 -0.159991,-0.0326 -0.318415,-0.0693 -0.475424,-0.10955 -0.157009,-0.0402 -0.312296,-0.0841 -0.466122,-0.13178 -0.153823,-0.0476 -0.306379,-0.0991 -0.456819,-0.15399 -0.150439,-0.0549 -0.299117,-0.11328 -0.445968,-0.17519 -0.146852,-0.0619 -0.291537,-0.12712 -0.4346,-0.19585 -0.14306,-0.0687 -0.284162,-0.14065 -0.423227,-0.21601 -0.139068,-0.0754 -0.276474,-0.15438 -0.411345,-0.23616 -0.134872,-0.0818 -0.267436,-0.16676 -0.39791,-0.25476 -0.130474,-0.088 -0.258598,-0.17884 -0.384471,-0.27286 -0.125876,-0.094 -0.249452,-0.1911 -0.37052,-0.29093 -0.121071,-0.0998 -0.239469,-0.20255 -0.355534,-0.30799 -0.116065,-0.10545 -0.229692,-0.21368 -0.340548,-0.32453 -0.110857,-0.11086 -0.219083,-0.22397 -0.32453,-0.34003 -0.105447,-0.11607 -0.208155,-0.23499 -0.30799,-0.35605 -0.09983,-0.12107 -0.196919,-0.24465 -0.290939,-0.37053 -0.09402,-0.12587 -0.184848,-0.25399 -0.272851,-0.38447 -0.088,-0.13047 -0.172982,-0.26304 -0.254765,-0.39791 -0.08178,-0.13487 -0.160285,-0.27227 -0.235643,-0.41134 -0.07536,-0.13907 -0.147791,-0.28017 -0.216525,-0.42323 -0.06874,-0.14306 -0.133948,-0.28775 -0.195855,-0.4346 -0.06191,-0.14685 -0.120306,-0.29553 -0.175183,-0.44597 -0.05488,-0.15044 -0.106349,-0.30247 -0.153996,-0.4563 -0.0114,-0.0368 -0.02055,-0.0746 -0.03152,-0.11162 h 13.591932 z" />
    <path
       id="path19355"
       style="fill:#000000;fill-opacity:0.278226;stroke-width:0.777131"
       d="m 139.61042,118.88192 h 4.18682 c 0.16989,0 0.33871,0.004 0.50643,0.0129 0.16772,0.008 0.33437,0.021 0.49971,0.0377 0.16535,0.0167 0.32971,0.0373 0.49248,0.062 0.16277,0.0247 0.32422,0.0532 0.48421,0.0858 0.15999,0.0326 0.31841,0.0693 0.47542,0.10955 0.15701,0.0402 0.3123,0.0841 0.46612,0.13178 0.15383,0.0476 0.30638,0.0991 0.45682,0.15399 0.15044,0.0549 0.29912,0.11328 0.44597,0.17519 0.14685,0.0619 0.29154,0.12711 0.4346,0.19585 0.14306,0.0687 0.28416,0.14065 0.42323,0.21601 0.13907,0.0754 0.27647,0.15438 0.41134,0.23616 0.13487,0.0818 0.26744,0.16676 0.39791,0.25476 0.13048,0.088 0.2586,0.17883 0.38447,0.27285 0.12588,0.094 0.24946,0.19111 0.37052,0.29094 0.12107,0.0998 0.23947,0.20255 0.35554,0.30799 0.11606,0.10545 0.22969,0.21368 0.34055,0.32453 0.11085,0.11086 0.21908,0.22397 0.32453,0.34003 0.10544,0.11607 0.20815,0.23498 0.30799,0.35605 0.0998,0.12107 0.19692,0.24465 0.29094,0.37053 0.094,0.12587 0.18484,0.25399 0.27285,0.38447 0.088,0.13047 0.17298,0.26303 0.25476,0.39791 0.0818,0.13487 0.16029,0.27227 0.23564,0.41134 0.0754,0.13907 0.1478,0.28017 0.21653,0.42323 0.0687,0.14306 0.13395,0.28775 0.19585,0.4346 0.0619,0.14685 0.12031,0.29553 0.17519,0.44597 0.0549,0.15044 0.10635,0.30247 0.15399,0.4563 0.0114,0.0368 0.0206,0.0746 0.0315,0.11162 h -13.59194 z" />
    <path
       id="path19357"
       style="fill:#000000;fill-opacity:0.278226;stroke-width:0.777131"
       d="m 47.608263,118.94797 h -4.18682 c -0.16989,0 -0.33871,0.004 -0.50643,0.0129 -0.16772,0.008 -0.33437,0.021 -0.49971,0.0377 -0.16535,0.0167 -0.32971,0.0373 -0.49248,0.062 -0.16277,0.0247 -0.32422,0.0532 -0.48421,0.0858 -0.15999,0.0326 -0.31841,0.0693 -0.47542,0.10955 -0.15701,0.0402 -0.3123,0.0841 -0.46612,0.13178 -0.15383,0.0476 -0.30638,0.0991 -0.45682,0.15399 -0.15044,0.0549 -0.29912,0.11328 -0.44597,0.17519 -0.14685,0.0619 -0.29154,0.12711 -0.4346,0.19585 -0.14306,0.0687 -0.28416,0.14065 -0.42323,0.21601 -0.13907,0.0754 -0.27647,0.15438 -0.41134,0.23616 -0.13487,0.0818 -0.26744,0.16676 -0.39791,0.25476 -0.13048,0.088 -0.2586,0.17883 -0.38447,0.27285 -0.12588,0.094 -0.24946,0.19111 -0.37052,0.29094 -0.12107,0.0998 -0.23947,0.20255 -0.35554,0.30799 -0.11606,0.10545 -0.22969,0.21368 -0.34055,0.32453 -0.11085,0.11086 -0.21908,0.22397 -0.32453,0.34003 -0.10544,0.11607 -0.20815,0.23498 -0.30799,0.35605 -0.0998,0.12107 -0.19692,0.24465 -0.29094,0.37053 -0.094,0.12587 -0.18484,0.25399 -0.27285,0.38447 -0.088,0.13047 -0.17298,0.26303 -0.25476,0.39791 -0.0818,0.13487 -0.16029,0.27227 -0.23564,0.41134 -0.0754,0.13907 -0.1478,0.28017 -0.21653,0.42323 -0.0687,0.14306 -0.13395,0.28775 -0.19585,0.4346 -0.0619,0.14685 -0.12031,0.29553 -0.17519,0.44597 -0.0549,0.15044 -0.10635,0.30247 -0.15399,0.4563 -0.0114,0.0368 -0.0206,0.0746 -0.0315,0.11162 h 13.59194 z" />
  </g>
</svg>
