<?xml version="1.0" encoding="UTF-8" standalone="no"?>
<!-- Created with Inkscape (http://www.inkscape.org/) -->

<svg
   id="svg5"
   width="126.05016mm"
   height="112.91993mm"
   version="1.1"
   viewBox="0 0 126.05017 112.91993"
   sodipodi:docname="Moons(White) inkscape.svg"
   inkscape:version="1.1 (c4e8f9e, 2021-05-24)"
   xmlns:inkscape="http://www.inkscape.org/namespaces/inkscape"
   xmlns:sodipodi="http://sodipodi.sourceforge.net/DTD/sodipodi-0.dtd"
   xmlns="http://www.w3.org/2000/svg"
   xmlns:svg="http://www.w3.org/2000/svg">
  <defs
     id="defs837" />
  <sodipodi:namedview
     id="namedview835"
     pagecolor="#ffffff"
     bordercolor="#666666"
     borderopacity="1.0"
     inkscape:pageshadow="2"
     inkscape:pageopacity="0.0"
     inkscape:pagecheckerboard="0"
     inkscape:document-units="mm"
     showgrid="false"
     inkscape:zoom="1.3097961"
     inkscape:cx="290.50324"
     inkscape:cy="224.84416"
     inkscape:window-width="1920"
     inkscape:window-height="969"
     inkscape:window-x="1280"
     inkscape:window-y="25"
     inkscape:window-maximized="1"
     inkscape:current-layer="svg5" />
  <rect
     style="fill:#161616;fill-opacity:1;stroke-width:1"
     id="rect1611"
     width="126.05016"
     height="112.91993"
     x="0"
     y="0"
     ry="8.7469931" />
  <circle
     id="circle944"
     cx="63.025082"
     cy="56.459965"
     style="fill:#838383;fill-opacity:0.25;stroke-width:1.32334"
     r="35.299999" />
  <circle
     id="circle1065"
     cx="63.025082"
     cy="56.459965"
     style="fill:#838383;fill-opacity:0.25;stroke-width:1.15558"
     r="30.825001" />
  <circle
     id="circle1740"
     cx="63.024925"
     cy="56.459965"
     r="26.674999"
     style="fill:#ffffff;fill-opacity:1" />
  <circle
     id="path2884"
     cx="59.375088"
     cy="62.188961"
     r="1.0543"
     style="fill:#bbbbbb;fill-opacity:1" />
  <circle
     id="path3186"
     cx="75.335098"
     cy="45.249962"
     r="0.56228"
     style="fill:#f8f8f8" />
  <circle
     id="path3188"
     cx="67.605087"
     cy="35.831963"
     r="1.8274"
     style="fill:#bbbbbb;fill-opacity:1" />
  <circle
     id="path3190"
     cx="51.925091"
     cy="46.866962"
     r="1.3354"
     style="fill:#bbbbbb;fill-opacity:1" />
  <circle
     id="path3402"
     cx="76.525085"
     cy="66.264961"
     r="4.2873998"
     style="fill:#b8b8b8;fill-opacity:1" />
  <circle
     id="path3404"
     cx="49.535091"
     cy="71.606956"
     r="1.0543"
     style="fill:#bbbbbb;fill-opacity:1" />
  <circle
     id="path3406"
     cx="45.185085"
     cy="62.188961"
     r="2.7411001"
     style="fill:#bbbbbb;fill-opacity:1" />
  <circle
     id="path3408"
     cx="61.905087"
     cy="71.465958"
     r="2.6005001"
     style="fill:#bbbbbb;fill-opacity:1" />
  <path
     id="circle4674"
     style="fill:#747474;fill-opacity:0.75;stroke-width:1.00001"
     d="M 51.495707,32.412176 A 26.675281,26.674998 0 0 0 36.352797,56.463422 26.675281,26.674998 0 0 0 63.028454,83.138795 26.675281,26.674998 0 0 0 76.782797,79.302853 26.675281,26.674998 0 0 1 65.250047,81.926466 26.675281,26.674998 0 0 1 38.574902,55.251609 26.675281,26.674998 0 0 1 51.495707,32.412176 Z" />
</svg>
