<svg width="229mm" height="204mm" version="1.1" viewBox="0 0 229 204" xmlns="http://www.w3.org/2000/svg">
 <circle cx="65" cy="8" r=".4" style="fill:#000000"/>
 <circle cx="40" cy="34" r=".5" style="fill:#000000;stroke-width:.4"/>
 <circle cx="52" cy="45" r=".3" style="fill:#000000"/>
 <circle cx="26" cy="54" r=".5" style="fill:#000000;stroke-width:.4"/>
 <circle cx="30" cy="73" r=".5" style="fill:#000000;stroke-width:.4"/>
 <circle cx="56" cy="84" r=".5" style="fill:#000000"/>
 <circle cx="43" cy="93" r=".5" style="fill:#000000;stroke-width:.4"/>
 <circle cx="30" cy="138" r=".5" style="fill:#000000;stroke-width:.4"/>
 <circle cx="6" cy="149" r=".4" style="fill:#000000"/>
 <circle cx="16" cy="158" r=".5" style="fill:#000000;stroke-width:.4"/>
 <circle cx="17" cy="191" r=".5" style="fill:#000000;stroke-width:.3"/>
 <circle cx="69" cy="145" r=".3" style="fill:#000000"/>
 <circle cx="101" cy="149" r=".3" style="fill:#000000"/>
 <circle cx="68" cy="121" r=".4" style="fill:#000000"/>
 <circle cx="82" cy="106" r=".4" style="fill:#000000"/>
 <circle cx="105" cy="113" r=".5" style="fill:#000000;stroke-width:.4"/>
 <circle cx="82" cy="77" r=".5" style="fill:#000000;stroke-width:.3"/>
 <circle cx="79" cy="50" r=".5" style="fill:#000000;stroke-width:.4"/>
 <circle cx="109" cy="33" r=".4" style="fill:#000000"/>
 <circle cx="71" cy="30" r=".4" style="fill:#000000"/>
 <circle cx="80" cy="23" r=".5" style="fill:#000000"/>
 <circle cx="102" cy="14" r=".5" style="fill:#000000;stroke-width:.4"/>
 <circle cx="131" cy="9" r=".5" style="fill:#000000"/>
 <circle cx="160" cy="14" r=".3" style="fill:#000000"/>
 <circle cx="169" cy="7" r=".4" style="fill:#000000"/>
 <circle cx="151" cy="40" r=".4" style="fill:#000000"/>
 <circle cx="119" cy="44" r=".3" style="fill:#000000"/>
 <circle cx="158" cy="78" r=".5" style="fill:#000000;stroke-width:.3"/>
 <circle cx="153" cy="89" r=".4" style="fill:#000000"/>
 <circle cx="122" cy="85" r=".3" style="fill:#000000"/>
 <circle cx="158" cy="108" r=".4" style="fill:#000000"/>
 <circle cx="134" cy="120" r=".4" style="fill:#000000"/>
 <circle cx="165" cy="163" r=".4" style="fill:#000000"/>
 <circle cx="133" cy="157" r=".4" style="fill:#000000"/>
 <circle cx="117" cy="176" r=".5" style="fill:#000000;stroke-width:.4"/>
 <circle cx="133" cy="184" r=".4" style="fill:#000000"/>
 <circle cx="148" cy="172" r=".5" style="fill:#000000"/>
 <circle cx="181" cy="189" r=".5" style="fill:#000000;stroke-width:.4"/>
 <circle cx="197" cy="197" r=".4" style="fill:#000000"/>
 <circle cx="212" cy="185" r=".3" style="fill:#000000"/>
 <circle cx="197" cy="170" r=".4" style="fill:#000000"/>
 <circle cx="210" cy="121" r=".4" style="fill:#000000"/>
 <circle cx="181" cy="115" r=".5" style="fill:#000000;stroke-width:.3"/>
 <circle cx="187" cy="98" r=".4" style="fill:#000000"/>
 <circle cx="198" cy="86" r=".4" style="fill:#000000"/>
 <circle cx="229" cy="91" r=".4" style="fill:#000000"/>
 <circle cx="208" cy="62" r=".4" style="fill:#000000"/>
 <circle cx="222" cy="41" r=".5" style="fill:#000000;stroke-width:.4"/>
 <circle cx="208" cy="34" r=".4" style="fill:#000000"/>
 <circle cx="193" cy="47" r=".5" style="fill:#000000"/>
 <circle cx="206" cy="13" r=".4" style="fill:#000000"/>
 <circle cx="203" cy="6" r=".3" style="fill:#000000"/>
 <circle cx="195" cy="8" r=".3" style="fill:#000000"/>
</svg>
